<svg xmlns="http://www.w3.org/2000/svg" width="16" height="16" viewBox="0 0 16 16">
    <path d="M3.6508 5.21082C3.42681 5.21082 3.23677 5.28893 3.08055 5.44515C2.92433 5.60137 2.84619 5.78883 2.84619 6.00762V9.36697C2.84619 9.59124 2.9243 9.78112 3.08055 9.93737C3.23677 10.0936 3.42681 10.1717 3.6508 10.1717C3.87463 10.1717 4.06352 10.0936 4.21732 9.93737C4.37082 9.78115 4.44778 9.59124 4.44778 9.36697V6.00762C4.44778 5.78881 4.36967 5.60137 4.21342 5.44515C4.05718 5.28893 3.8696 5.21082 3.6508 5.21082Z"></path>
    <path d="M10.1196 2.19521L10.6743 1.17194C10.7107 1.1042 10.6977 1.05225 10.6353 1.01572C10.5675 0.984222 10.5154 1.00018 10.4791 1.06247L9.91661 2.09392C9.42169 1.8751 8.89823 1.76549 8.34624 1.76549C7.79413 1.76549 7.27062 1.87513 6.77589 2.09392L6.21342 1.06247C6.17686 1.00018 6.1248 0.984363 6.05719 1.01572C5.99462 1.05241 5.98167 1.1042 6.01822 1.17194L6.57294 2.19521C6.01046 2.48205 5.56249 2.88154 5.22917 3.39453C4.89585 3.90781 4.72913 4.46871 4.72913 5.07823H11.9555C11.9555 4.46885 11.7887 3.90793 11.4555 3.39453C11.1221 2.88154 10.6767 2.48205 10.1196 2.19521ZM6.91256 3.68356C6.85257 3.74369 6.78092 3.77362 6.69764 3.77362C6.61419 3.77362 6.54401 3.74369 6.48674 3.68356C6.42948 3.62372 6.40085 3.55235 6.40085 3.46879C6.40085 3.38551 6.42948 3.314 6.48674 3.25401C6.54401 3.19417 6.61436 3.16424 6.69764 3.16424C6.78092 3.16424 6.85257 3.19417 6.91256 3.25401C6.9724 3.31414 7.00247 3.38551 7.00247 3.46879C7.0023 3.55221 6.97226 3.62372 6.91256 3.68356ZM10.2054 3.68356C10.148 3.74369 10.0777 3.77362 9.99455 3.77362C9.91108 3.77362 9.83946 3.74369 9.77959 3.68356C9.71963 3.62372 9.6897 3.55235 9.6897 3.46879C9.6897 3.38551 9.71963 3.314 9.77959 3.25401C9.83946 3.19417 9.91108 3.16424 9.99455 3.16424C10.0778 3.16424 10.148 3.19417 10.2054 3.25401C10.2627 3.31414 10.2913 3.38551 10.2913 3.46879C10.2913 3.55221 10.2627 3.62372 10.2054 3.68356Z"></path>
    <path d="M4.76013 10.5623C4.76013 10.8021 4.84341 11.0051 5.01 11.1717C5.17673 11.3383 5.37973 11.4216 5.61937 11.4216H6.19753L6.20545 13.1952C6.20545 13.4191 6.28356 13.6093 6.43978 13.7656C6.596 13.9218 6.7836 13.9999 7.00226 13.9999C7.22611 13.9999 7.41627 13.9218 7.57251 13.7656C7.72876 13.6093 7.80687 13.4192 7.80687 13.1952V11.4217H8.88495V13.1952C8.88495 13.4191 8.96304 13.6093 9.11928 13.7656C9.27553 13.9218 9.46553 13.9999 9.68954 13.9999C9.91339 13.9999 10.1036 13.9218 10.2598 13.7656C10.416 13.6093 10.4941 13.4192 10.4941 13.1952V11.4217H11.0801C11.3144 11.4217 11.5148 11.3384 11.6817 11.1718C11.8483 11.0052 11.9316 10.8022 11.9316 10.5625V5.35913H4.76013V10.5623Z"></path>
    <path d="M13.0415 5.21082C12.8227 5.21082 12.6352 5.28777 12.479 5.44127C12.3228 5.59505 12.2447 5.78394 12.2447 6.00762V9.36697C12.2447 9.59124 12.3227 9.78112 12.479 9.93737C12.6352 10.0936 12.8228 10.1717 13.0415 10.1717C13.2653 10.1717 13.4555 10.0936 13.6117 9.93737C13.768 9.78112 13.8461 9.59124 13.8461 9.36697V6.00762C13.8461 5.78392 13.768 5.59505 13.6117 5.44127C13.4555 5.28777 13.2653 5.21082 13.0415 5.21082Z"></path>
</svg>