

<svg id="svg" version="1.1" xmlns="http://www.w3.org/2000/svg" xmlns:xlink="http://www.w3.org/1999/xlink"
     width="20" height="20" viewBox="0, 0, 220, 220" ><g id="svg" transform="scale(1) translate(-90 0)" >>
    <path id="path1" d="M187.639 0.216 C 185.908 0.432,185.082 0.713,183.727 1.547 C 183.119 1.921,182.545 2.227,182.451 2.227
    C 182.136 2.227,180.586 3.870,179.605 5.245 C 177.393 8.344,176.690 10.593,175.167 19.428 C 173.836 27.149,173.635 27.433,167.895 29.725
    C 166.260 30.378,163.970 31.343,162.806 31.870 C 158.611 33.770,157.704 33.522,150.780 28.580 C 141.613 22.039,137.711 21.031,132.051 23.744
    C 128.648 25.375,113.758 40.007,112.029 43.419 C 109.017 49.362,109.926 53.318,116.408 62.472 C 121.916 70.251,122.017 70.693,119.564 76.237
    C 119.066 77.364,118.320 79.214,117.906 80.349 C 115.810 86.104,115.662 86.196,105.902 87.845 C 95.953 89.526,92.467 91.535,90.317 96.827
    C 88.349 101.669,88.290 121.655,90.228 126.574 C 92.451 132.213,95.759 134.110,106.586 135.957 C 115.981 137.560,115.997 137.570,118.680 144.104
    C 119.408 145.877,120.362 148.179,120.800 149.220 C 122.437 153.112,122.161 153.908,116.400 161.904 C 110.512 170.076,109.713 174.758,113.185 180.735
    C 114.460 182.930,129.223 197.692,131.403 198.952 C 136.897 202.128,141.941 201.472,148.664 196.707 C 159.817 188.801,158.359 189.102,167.483 192.823
    C 174.345 195.620,174.340 195.613,175.840 204.677 C 177.193 212.853,177.611 214.167,179.843 217.261 C 181.758 219.914,182.486 220.462,186.615 222.360
    C 187.365 222.705,212.635 222.705,213.385 222.360 C 220.475 219.101,222.227 216.227,224.164 204.677 C 225.679 195.647,225.827 195.420,231.636 193.203
    C 232.720 192.789,234.777 191.932,236.207 191.298 C 241.031 189.158,241.713 189.321,248.664 194.285 C 258.715 201.464,263.181 202.328,269.376 198.293
    C 271.517 196.899,285.984 182.393,287.055 180.566 C 290.542 174.621,289.808 169.800,284.215 161.915 C 277.868 152.967,277.678 152.400,279.618 148.218
    C 280.072 147.238,280.993 145.033,281.665 143.318 C 284.066 137.184,284.507 136.867,292.377 135.636 C 305.273 133.618,309.185 130.861,310.712 122.717
    C 311.426 118.909,311.160 101.476,310.339 98.282 C 308.575 91.412,305.244 89.237,293.371 87.203 C 285.180 85.799,284.162 85.290,282.774 81.899
    C 282.462 81.136,281.432 78.658,280.485 76.392 C 277.797 69.959,277.799 69.949,283.115 62.457 C 289.978 52.783,290.878 48.571,287.368 42.539
    C 286.215 40.558,271.917 26.084,269.536 24.487 C 263.431 20.395,258.898 21.262,248.716 28.467 C 241.610 33.496,241.289 33.562,235.635 31.139
    C 233.736 30.325,231.331 29.334,230.290 28.937 C 225.535 27.123,225.170 26.516,223.721 18.024 C 221.848 7.041,220.027 3.706,214.477 1.084
    C 213.925 0.823,213.274 0.498,213.029 0.362 C 212.510 0.072,189.830 -0.059,187.639 0.216 M209.143 13.179 C 211.056 14.304,211.248 14.897,212.908 24.769
    C 214.775 35.875,215.150 36.433,222.300 38.758 C 226.904 40.256,230.252 41.626,234.480 43.743 C 238.786 45.900,240.246 46.394,241.982 46.284
    C 244.371 46.131,245.321 45.574,254.677 38.844 C 262.336 33.335,262.054 33.290,270.058 41.298 C 278.260 49.505,278.216 48.692,271.006 58.909
    C 264.073 68.732,263.916 69.418,267.139 75.742 C 269.127 79.642,271.034 84.179,272.345 88.124 C 274.968 96.021,275.120 96.128,286.741 98.119
    C 299.894 100.373,299.220 99.659,299.220 111.359 C 299.220 122.990,299.839 122.299,287.540 124.385 C 275.210 126.477,274.848 126.711,272.382 134.187
    C 270.872 138.764,270.141 140.553,267.734 145.568 C 263.839 153.680,263.866 153.828,271.136 164.031 C 278.196 173.940,278.243 173.245,269.953 181.532
    C 262.202 189.281,262.196 189.282,255.345 184.421 C 241.727 174.756,242.732 174.990,233.631 179.380 C 228.466 181.871,227.964 182.076,222.641 183.870
    C 215.978 186.116,215.006 187.301,213.797 194.655 C 210.995 211.699,211.863 210.690,200.000 210.690 C 188.438 210.690,189.070 211.264,186.971 198.886
    C 184.855 186.409,184.876 186.441,176.932 183.723 C 172.454 182.192,169.467 180.950,165.501 178.970 C 158.346 175.398,158.327 175.403,146.771 183.604
    C 137.936 189.873,138.455 189.929,130.388 181.862 C 122.206 173.680,122.243 174.278,129.320 164.365 C 136.472 154.347,136.521 154.080,132.634 146.214
    C 130.386 141.665,128.868 137.974,127.516 133.773 C 125.511 127.540,124.559 126.957,113.278 125.042 C 100.393 122.855,101.225 123.762,101.225 111.915
    L 101.225 103.675 101.782 102.562 C 102.849 100.429,103.000 100.381,114.824 98.350 C 124.469 96.693,125.235 96.134,127.518 89.085
    C 128.962 84.628,129.991 82.088,132.333 77.202 C 135.992 69.569,135.932 69.275,128.650 59.071 C 121.532 49.099,121.497 49.746,129.606 41.627
     C 137.855 33.370,137.117 33.423,146.852 40.384 C 157.318 47.868,157.352 47.875,165.337 43.904 C 170.257 41.457,171.822 40.798,176.562 39.175
     C 184.315 36.521,184.547 36.174,186.530 24.276 C 188.021 15.335,188.335 14.309,189.880 13.354 C 191.205 12.536,191.664 12.499,200.000 12.542
     L 208.129 12.584 209.143 13.179 M194.878 63.930 C 158.008 68.436,139.861 110.408,162.006 139.957 C 185.456 171.248,234.949 162.125,245.762 124.519
     C 255.046 92.228,227.893 59.895,194.878 63.930 M204.043 75.826 C 237.409 80.267,247.366 122.622,219.428 141.270 C 198.706 155.101,169.797 142.892,165.029 118.295
     C 160.433 94.585,180.541 72.697,204.043 75.826
" stroke="none" fill="white" fill-rule="evenodd"></path></g></svg>