<svg xmlns="http://www.w3.org/2000/svg" width="16" height="16" viewBox="0 0 16 16">
    <path d="M11.3523 8.38156C11.3645 7.45521 11.874 6.57869 12.6824 6.09349C12.1724 5.38244 11.3183 4.93161 10.4296 4.90447C9.48178 4.80734 8.56289 5.4582 8.07989 5.4582C7.58754 5.4582 6.84389 4.91411 6.04309 4.9302C4.99929 4.96312 4.02621 5.5425 3.51838 6.43344C2.42675 8.27864 3.24101 10.9905 4.2867 12.482C4.80988 13.2124 5.42134 14.0282 6.22141 13.9993C7.00432 13.9675 7.29673 13.5118 8.24178 13.5118C9.17805 13.5118 9.45239 13.9993 10.2687 13.9809C11.1088 13.9675 11.6381 13.2473 12.1429 12.51C12.5188 11.9896 12.8081 11.4144 13 10.8058C12.0127 10.3981 11.3534 9.42811 11.3523 8.38156Z"></path>
    <path d="M9.81038 3.92357C10.2684 3.38671 10.4941 2.69668 10.4395 2C9.73965 2.07176 9.09322 2.3983 8.62897 2.91456C8.17499 3.41897 7.93874 4.09686 7.98341 4.76691C8.68347 4.77395 9.3717 4.45626 9.81038 3.92357Z"></path>
</svg>