<svg xmlns="http://www.w3.org/2000/svg" width="16" height="16" viewBox="0 0 16 16">
    <path fill-rule="evenodd" clip-rule="evenodd" d="M5.06368 2.24311C5.77209 1.26197 6.8238 1.03231 7.85759 1.00049L7.91454 1.00027L7.99987 1L8.0667 1.00019L8.14214 1.00041C9.17596 1.03221 10.2276 1.26195 10.9361 2.24311C11.5663 3.11598 11.5409 3.91818 11.5266 4.36958C11.5233 4.47221 11.5207 4.5567 11.5264 4.61977C11.5366 4.73161 11.793 5.23428 12.1219 5.87901L12.122 5.8791L12.122 5.8791C12.7945 7.19724 13.7699 9.10913 13.5631 9.48905C13.483 9.63614 13.2744 9.60549 13.0727 9.57585C12.8408 9.54178 12.618 9.50904 12.6097 9.74905C12.6084 9.78633 12.6125 9.85152 12.6181 9.93972C12.6792 10.9131 12.9164 14.6891 8.03973 14.6891L8.01502 14.689L7.99974 14.6891H7.96009C3.08344 14.6891 3.32054 10.9131 3.38166 9.9397C3.3872 9.85151 3.39129 9.78633 3.39 9.74905C3.38173 9.50904 3.1589 9.54178 2.92704 9.57585C2.72531 9.60549 2.51674 9.63614 2.43667 9.48905C2.22986 9.10913 3.20526 7.19724 3.87775 5.8791C4.2067 5.23432 4.46318 4.73161 4.47334 4.61977C4.47908 4.5567 4.4764 4.47221 4.47315 4.36958C4.45885 3.91818 4.43345 3.11598 5.06368 2.24311ZM6.77591 3.95521C6.77591 3.67401 6.54794 3.44604 6.26674 3.44604C5.98553 3.44604 5.75757 3.67401 5.75757 3.95521C5.75757 4.23642 5.98553 4.46438 6.26674 4.46438C6.54794 4.46438 6.77591 4.23642 6.77591 3.95521ZM9.73344 3.44604C10.0146 3.44604 10.2426 3.67401 10.2426 3.95521C10.2426 4.23642 10.0146 4.46438 9.73344 4.46438C9.45224 4.46438 9.22427 4.23642 9.22427 3.95521C9.22427 3.67401 9.45224 3.44604 9.73344 3.44604ZM7.22953 6.30143C6.78222 6.04346 6.26906 5.74751 5.93981 5.75811C5.9211 5.75871 5.90304 5.76028 5.88556 5.76293C5.55826 5.81249 5.58124 6.12046 5.6089 6.4911C5.6285 6.7539 5.65046 7.0482 5.55159 7.30424C4.95171 8.85766 4.14559 11.2642 5.00603 12.665C5.27352 13.1005 5.89498 13.8479 7.86096 13.8726C7.87669 13.8727 7.89229 13.8728 7.90789 13.8729C7.93835 13.8732 7.96879 13.8734 8.0001 13.8735C8.03117 13.8735 8.06139 13.8732 8.09162 13.8729C8.10742 13.8728 8.12322 13.8727 8.13916 13.8726C10.1052 13.8479 10.7268 13.1005 10.9943 12.665C11.8547 11.2642 11.0486 8.85766 10.4487 7.30424C10.3498 7.0482 10.3718 6.7539 10.3914 6.4911C10.4191 6.12046 10.442 5.81249 10.1147 5.76293C9.78972 5.71372 9.24346 6.02877 8.77074 6.3014C8.50744 6.45325 8.26696 6.59194 8.10023 6.64721C8.08633 6.65093 8.0748 6.65457 8.06447 6.65783C8.04122 6.66517 8.02412 6.67057 8.0001 6.67057C7.9763 6.67057 7.96065 6.66563 7.93763 6.65837C7.92711 6.65505 7.91506 6.65125 7.89998 6.64721C7.73326 6.59193 7.4928 6.45325 7.22953 6.30143Z"></path>
</svg>