<svg xmlns="http://www.w3.org/2000/svg" width="16" height="16" viewBox="0 0 16 16">
    <path fill-rule="evenodd" clip-rule="evenodd" d="M8 16C12.4183 16 16 12.4183 16 8C16 3.58172 12.4183 0 8 0C3.58172 0 0 3.58172 0 8C0 12.4183 3.58172 16 8 16ZM3.29289 4.29289C3 4.58579 3 5.05719 3 6V10C3 10.9428 3 11.4142 3.29289 11.7071C3.58579 12 4.05719 12 5 12H11C11.9428 12 12.4142 12 12.7071 11.7071C13 11.4142 13 10.9428 13 10V6C13 5.05719 13 4.58579 12.7071 4.29289C12.4142 4 11.9428 4 11 4H5C4.05719 4 3.58579 4 3.29289 4.29289Z"></path>
    <path d="M9.3409 7.65898C9.34579 7.27301 9.54962 6.90779 9.87296 6.70562C9.66898 6.40935 9.32731 6.22151 8.97184 6.21019C8.59271 6.16972 8.22516 6.44092 8.03196 6.44092C7.83502 6.44092 7.53755 6.21421 7.21724 6.22092C6.79972 6.23463 6.41048 6.47604 6.20735 6.84727C5.7707 7.6161 6.0964 8.74603 6.51468 9.3675C6.72395 9.67181 6.96853 10.0117 7.28856 9.99969C7.60173 9.98648 7.71869 9.7966 8.09671 9.7966C8.47122 9.7966 8.58096 9.99969 8.90748 9.99202C9.24352 9.98648 9.45524 9.68636 9.65717 9.37916C9.80754 9.16232 9.92324 8.92267 10 8.66908C9.60509 8.49922 9.34136 8.09505 9.3409 7.65898Z"></path>
    <path d="M8.72415 5.80149C8.90738 5.5778 8.99764 5.29028 8.97579 5C8.69586 5.0299 8.43729 5.16596 8.25159 5.38107C8.07 5.59124 7.9755 5.87369 7.99336 6.15288C8.27339 6.15581 8.54868 6.02344 8.72415 5.80149Z"></path>
</svg>